<?xml version="1.0" encoding="utf-8"?>
<svg version="1.1" xmlns:xlink="http://www.w3.org/1999/xlink" width="8px" height="4px" xmlns="http://www.w3.org/2000/svg">
  <g transform="matrix(1 0 0 1 -334 -264 )">
    <path d="M 0.703255208333334 0.114739583333334  C 0.837421875 -0.0194270833333334  1.05234375 -0.0275390624999998  1.196171875 0.0962369791666671  L 1.2161328125 0.114739583333334  L 4.29266927083333 3.19127604166667  L 7.36920572916667 0.114739583333334  C 7.50337239583333 -0.0196093749999999  7.7184765625 -0.0276302083333331  7.8623046875 0.0962369791666671  L 7.88208333333333 0.114739583333334  C 8.01625 0.24890625  8.02436197916667 0.463828125  7.9005859375 0.60765625  L 7.88208333333333 0.6276171875  L 4.67721354166667 3.83239583333333  C 4.47359375 4.03592447916667  4.1465625 4.04549479166667  3.9313671875 3.8541796875  L 3.908125 3.83239583333333  L 0.703072916666666 0.627434895833333  C 0.5615234375 0.485885416666666  0.5615234375 0.256289062499999  0.703072916666666 0.114739583333333  Z " fill-rule="nonzero" fill="#7f7f7f" stroke="none" transform="matrix(1 0 0 1 334 264 )" />
  </g>
</svg>