<?xml version="1.0" encoding="utf-8"?>
<svg version="1.1" xmlns:xlink="http://www.w3.org/1999/xlink" width="14px" height="14px" xmlns="http://www.w3.org/2000/svg">
  <g transform="matrix(1 0 0 1 -386 -181 )">
    <path d="M 13.8254514589844 13.789323296875  C 14.0877046132812 13.5069640644531  14.0361281621094 13.1354387636719  13.677715515625 12.7735294121094  C 13.5902977929687 12.6861116894531  13.5028800839844 12.6065615703125  13.4207074257812 12.5191438613281  C 12.7143722617188 11.7813383242187  12.0089112773437 11.0426586074219  11.27197990625 10.2751310292969  C 11.3034502792969 10.2270512832031  11.3384173710937 10.1807198964844  11.3725102832031 10.1343885097656  C 12.1309788048741 9.20241743707139  12.598277004469 8.06776755519174  12.7161206210938 6.87195926757812  C 12.9601639079889 4.77292178535407  12.0773190469206 2.70109498381653  10.394306015625 1.42321290234375  C 8.79486711686871 0.112678492048703  6.65274687474372 -0.326403848904646  4.66669713671875 0.2491929453125  C 1.93007359611799 0.956423851252513  0.018260066482781 3.42512146635796  0.018260066482781 6.2516536096896  C 0.018260066482781 7.24394218145475  0.256443417314853 8.22173458869172  0.712793744140625 9.10285943164063  C 1.62969553667691 10.9159658850696  3.38575165623089 12.1566327922434  5.40100596875 12.415116765625  C 6.99127433498811 12.6809296505011  8.62265531384088 12.3196191902465  9.95197236523437 11.407190484375  C 10.1460396953125 11.2769380800781  10.2736695742187 11.2664479648438  10.4406374160156 11.4491509863281  C 10.7264933535156 11.7586097070312  11.0377004335937 12.0453398242188  11.3384173710937 12.341685890625  C 11.8026054589844 12.798006375  12.2624226484375 13.2586977578125  12.7318558007813 13.7106473574219  C 12.8722181527585 13.8895306878288  13.0869884050423 13.994003311561  13.3143665828652 13.994003311561  C 13.5047035876462 13.994003311561  13.6877302074245 13.9207045446153  13.8254514589844 13.789323296875  Z M 11.4048548496094 6.2757704296875  C 11.364097942802 9.01995347644636  9.11484187531154 11.2160928817849  6.370468453125 11.1912687167969  C 3.62720241808885 11.2040387264263  1.38513648290457 9.00564433366739  1.34394967382812 6.26265777539063  C 1.37476050406803 3.53283820702621  3.59644881297726 1.33608406346593  6.3264422530949 1.33608406346593  C 6.35190029663783 1.33608406346593  6.37735796636703 1.33627916783167  6.40281301953125 1.336669359375  C 6.414204847155 1.33659098977281  6.42559691064949 1.33655180462401  6.43698900784025 1.33655180462401  C 9.16949820075341 1.33655180462401  11.389052394557 3.54330693097993  11.4048548496094 6.2757704296875  Z " fill-rule="nonzero" fill="#aaaaaa" stroke="none" transform="matrix(1 0 0 1 386 181 )" />
  </g>
</svg>