<?xml version="1.0" encoding="utf-8"?>
<svg version="1.1" xmlns:xlink="http://www.w3.org/1999/xlink" width="12px" height="8px" xmlns="http://www.w3.org/2000/svg">
  <g transform="matrix(1 0 0 1 -213 -346 )">
    <path d="M 11.2500219248867 0.791812500000001  C 11.2500219248867 0.63752714299223  11.1867610544163 0.489989646865218  11.075 0.383625  C 10.841375 0.15  10.4625 0.15  10.258625 0.383625  L 4.6 6.1  L 1.741375 3.3  C 1.508625 3.066375  1.128875 3.066375  0.925 3.3  C 0.691375 3.533625  0.691375 3.9125  0.925 4.116375  L 4.191375 7.325  C 4.308625 7.441375  4.453875 7.5  4.6 7.5  C 4.7541430664032 7.49872032194643  4.90133554398642 7.43568285831336  5.008625 7.325  L 11.075 1.2  C 11.1867610544163 1.09363535313478  11.2500219248867 0.946097857007771  11.2500219248867 0.791812500000001  Z " fill-rule="nonzero" fill="#ffffff" stroke="none" transform="matrix(1 0 0 1 213 346 )" />
  </g>
</svg>