<?xml version="1.0" encoding="utf-8"?>
<svg version="1.1" xmlns:xlink="http://www.w3.org/1999/xlink" width="15px" height="13px" xmlns="http://www.w3.org/2000/svg">
  <g transform="matrix(1 0 0 1 -367 -270 )">
    <path d="M 14.3154305546875 6.50431509472657  C 14.3154306376953 5.9234958671875  14.178622390625 5.19914097460938  14.1728463085938 5.16902041113281  C 14.0918622099609 4.74097862304687  13.8293052285156 4.46418528710938  13.4930522011719 4.46418528710938  L 13.4347477294922 4.46418528710938  C 12.5261187802734 4.46418528710938  11.7870688486328 3.72515235546875  11.7870688486328 2.81626857226563  C 11.7870688486328 2.5291462421875  11.9248454316406 2.20176120507813  11.9301628291016 2.18874803710938  C 12.0978051748047 1.81151880078125  11.9691683828125 1.34924522167969  11.6300273144531 1.11198409082031  L 9.92502929785156 0.162650733398438  L 9.89997128125 0.150385050781251  C 9.55887654101563 0.00246634082031338  9.09201608300781 0.0971431425781262  8.83768150683594 0.362112497070314  C 8.65362830078125 0.551941785156251  8.01910849707031 1.09321180761719  7.53493675976563 1.09321180761719  C 7.04446230566406 1.09321180761719  6.40853246484375 0.541086156250001  6.22354488964844 0.347655291992189  C 5.96965203125 0.0807492490234387  5.50761628613281 -0.0194488173828113  5.16266516894531 0.128215075195314  L 3.39696730761719 1.0956241640625  L 3.37046527050781 1.11249372558594  C 3.03129023535156 1.34880350390625  2.90217777539063 1.81106009960938  3.06888573535156 2.18684531542969  C 3.07464483398438 2.20058900195313  3.21293106835938 2.52530683203125  3.21293106835938 2.81628555566406  C 3.21293106835938 3.72516933886719  2.47388113671875 4.46420227050781  1.5652691875 4.46420227050781  L 1.49638088769531 4.46420227050781  C 1.17069470507813 4.46420227050781  0.908120723632815 4.74097862304688  0.827187608398439 5.16903739453125  C 0.821156692382814 5.19915797460938  0.68456929589844 5.9235128671875  0.68456929589844 6.50429809472657  C 0.68456929589844 7.08433583691407  0.821156692382815 7.80843589550781  0.827187608398439 7.838318625  C 0.908120740234377 8.26663223046875  1.17069470507813 8.54366340039063  1.50696471582031 8.54366340039063  L 1.5652691875 8.54366340039063  C 2.47388115332031 8.54366340039063  3.21293106835938 9.28271333203126  3.21293106835938 10.19132528125  C 3.21293106835938 10.4803842998047  3.07466181738281 10.8065461669922  3.06936140332031 10.8190666669922  C 2.9021947421875 11.1970264052734  3.03035584960938 11.6585694824219  3.36854554882813 11.8946414267578  L 5.04126544628906 12.8331531220703  L 5.06679913085938 12.8447222861328  C 5.41271860058594 12.9969730576172  5.88051342773438 12.8977093603516  6.13345493359375 12.6211878417969  C 6.36709752148438 12.3687220205078  7.0001733046875 11.8445254267578  7.46506310742188 11.8445254267578  C 7.96899244726563 11.8445254267578  8.61796943945312 12.4313415703125  8.80491068652344 12.6375307685547  C 8.97736076171875 12.8263917207031  9.24234709960938 12.9401296064453  9.51358520410156 12.9401296064453  C 9.64028530761719 12.9401296064453  9.7602409765625 12.9150376230469  9.87008850195313 12.8678436142578  L 11.6044935800781 11.91202065625  L 11.6300272646484 11.8955927958984  C 11.9691683330078 11.6585864824219  12.0982977763672 11.1970434052734  11.9311480986328 10.8210203554688  C 11.9253550332031 10.8070388349609  11.787085765625 10.4823040048828  11.787085765625 10.19134228125  C 11.787085765625 9.28273031542969  12.5261356972656 8.54368040039063  13.4347646464844 8.54368040039063  L 13.5027185771484 8.54368040039063  C 13.8288464609375 8.54368040039063  14.0918791269531 8.26664923046875  14.1728462255859 7.83833562500001  C 14.1786223076172 7.80845287890626  14.3154305546875 7.08435282031251  14.3154305546875 6.50431509472657  Z M 13.2179407197266 5.4443697265625  C 13.2521725273437 5.64620986328125  13.3268538925781 6.13065341796875  13.3268538925781 6.50428109472656  C 13.3268538925781 6.87957364257813  13.2521725273437 7.36184267480469  13.2179577197266 7.56322412695313  C 11.8550057958984 7.67499134082032  10.7984751367187 8.81391615234375  10.7984751367187 10.19130828125  C 10.7984751367187 10.5801066816406  10.9218284980469 10.9525111884766  10.9873530722656 11.1238060439453  L 9.50780920507813 11.9408840664063  C 9.43504754492187 11.8647756640625  9.22017722363281 11.6479516708984  8.92775447949219 11.4301763251953  C 8.41417568066406 11.0495833632813  7.92178152148438 10.8551671796875  7.46504619042969 10.8551671796875  C 7.01218423632812 10.8551671796875  6.5236804375 11.0447586337891  6.01251401171875 11.4205438496094  C 5.7215183046875 11.6325261298828  5.50955302441406 11.8435400576172  5.43534732714844 11.9215851484375  L 4.0121882265625 11.1247573964844  C 4.08156919433594 10.9447984013672  4.20154184667969 10.577201640625  4.20154184667969 10.19130828125  C 4.20154184667969 8.81391615234375  3.14501117089844 7.67499134082032  1.78255191503906 7.56322412695313  C 1.74786143945313 7.36184265820313  1.67318007421875 6.87959062597657  1.67318007421875 6.50428109472656  C 1.67318007421875 6.12824104492188  1.74786143945313 5.64575117871094  1.78255191503906 5.44436970996094  C 3.14501117089844 5.33284033007813  4.20154184667969 4.19367768457032  4.20154184667969 2.81628555566406  C 4.20154184667969 2.42966169433594  4.07820546875 2.05605100097656  4.01268089453125 1.88501096289063  L 5.52883494238281 1.05177689746094  C 5.59483520117188 1.11779413964844  5.81114952636719 1.3295215859375  6.10695297949219 1.54005984570313  C 6.61089930273437 1.89970600195313  7.0907729453125 2.08182253613282  7.53495379296875 2.08182253613282  C 7.97480257910156 2.08182253613282  8.45127852929688 1.9030867109375  8.95184414355469 1.55042282324219  C 9.250059953125 1.34085291601563  9.46589861035156 1.13201351074219  9.52851816015625 1.07299552050782  L 10.9878117568359 1.88356695898438  C 10.9218114980469 2.05363864453125  10.7984581367188 2.42604316796875  10.7984581367188 2.81628557226563  C 10.7984581367188 4.19367770117188  11.8549888125 5.33284034667969  13.2179407197266 5.4443697265625  Z " fill-rule="nonzero" fill="#555555" stroke="none" transform="matrix(1 0 0 1 367 270 )" />
  </g>
</svg>