<?xml version="1.0" encoding="utf-8"?>
<svg version="1.1" xmlns:xlink="http://www.w3.org/1999/xlink" width="5px" height="5px" xmlns="http://www.w3.org/2000/svg">
  <g transform="matrix(1 0 0 1 -372 -274 )">
    <path d="M 4.89516358496094 2.49486948632813  C 4.89516358496094 1.15794391503906  3.80730614257813 0.0700864892578128  2.47038058789063 0.0700864892578128  C 1.13345501660156 0.0700864892578128  0.0456145742187504 1.15794391503906  0.0456145742187504 2.49486948632813  C 0.0456145742187504 3.83201590820313  1.133472 4.91941464941406  2.47038058789063 4.91941464941406  C 3.80730615917969 4.91941464941406  4.89516358496094 3.83201590820313  4.89516358496094 2.49486948632813  Z M 2.47038057128906 1.05917288574219  C 3.26243457714844 1.05918986914063  3.90656983984375 1.70354599902344  3.90656983984375 2.49486948632813  C 3.90656983984375 3.28665165820312  3.26243456054688 3.93076995410156  2.47038057128906 3.93076995410156  C 1.67834356542969 3.93076995410156  1.03468397070313 3.28665165820312  1.03468397070313 2.49486948632813  C 1.03468397070313 1.70354599902344  1.67834356542969 1.05917288574219  2.47038057128906 1.05917288574219  Z " fill-rule="nonzero" fill="#555555" stroke="none" transform="matrix(1 0 0 1 372 274 )" />
  </g>
</svg>