<?xml version="1.0" encoding="utf-8"?>
<svg version="1.1" xmlns:xlink="http://www.w3.org/1999/xlink" width="14px" height="14px" xmlns="http://www.w3.org/2000/svg">
  <g transform="matrix(1 0 0 1 -386 -188 )">
    <path d="M 13.123703125 6.02959375  L 7.76315625 6.02959375  L 7.76315625 0.876359375  C 7.76315625 0.4251875  7.397609375 0.0598593749999998  6.94665625 0.0598593749999998  C 6.495671875 0.0598593749999998  6.13015625 0.425171875  6.130140625 0.876359375  L 6.130140625 6.02959375  L 0.876265625000002 6.02959375  C 0.425312500000002 6.02959375  0.059765625000002 6.3950625  0.059765625000002 6.84609375  C 0.059812500000002 7.29709375  0.425359375000002 7.662640625  0.876312500000002 7.662640625  L 6.130140625 7.662640625  L 6.130140625 13.123734375  C 6.130140625 13.574609375  6.4956875 13.94015625  6.94665625 13.94015625  C 7.397640625 13.94015625  7.763171875 13.57459375  7.763171875 13.123734375  L 7.763171875 7.662640625  L 13.123765625 7.662640625  C 13.574671875 7.662640625  13.940265625 7.29709375  13.940265625 6.84609375  C 13.94021875 6.3950625  13.5746875 6.02959375  13.12371875 6.02959375  Z " fill-rule="nonzero" fill="#555555" stroke="none" transform="matrix(1 0 0 1 386 188 )" />
  </g>
</svg>