<?xml version="1.0" encoding="utf-8"?>
<svg version="1.1" xmlns:xlink="http://www.w3.org/1999/xlink" width="15px" height="12px" xmlns="http://www.w3.org/2000/svg">
  <g transform="matrix(1 0 0 1 -354 -595 )">
    <path d="M 8.54091796875 0.6849609375  C 8.54091796875 1.03193359375  8.2607421875 1.31396484375  7.9119140625 1.31396484375  L 0.7794921875 1.31396484375  C 0.432519531250001 1.31396484375  0.15048828125 1.03193359375  0.15048828125 0.6849609375  C 0.15048828125 0.337988281249999  0.43251953125 0.0559570312499997  0.7794921875 0.0559570312499997  L 7.9119140625 0.0559570312499997  C 8.25888671875 0.0559570312499997  8.54091796875 0.337988281249999  8.54091796875 0.6849609375  Z M 4.97470703125 11.28525390625  C 4.97470703125 11.6322265625  4.69453125 11.9142578125  4.345703125 11.9142578125  L 0.7794921875 11.9142578125  C 0.432519531250001 11.9142578125  0.15048828125 11.6322265625  0.15048828125 11.28525390625  C 0.15048828125 10.93828125  0.43251953125 10.65625  0.7794921875 10.65625  L 4.345703125 10.65625  C 4.69267578125 10.65625  4.97470703125 10.93828125  4.97470703125 11.28525390625  Z M 4.731640625 4.2177734375  C 4.731640625 4.56474609375  4.449609375 4.84677734375  4.10263671875 4.84677734375  L 0.781347656249999 4.84677734375  C 0.434375 4.84677734375  0.15234375 4.56474609375  0.15234375 4.2177734375  C 0.15234375 3.87080078125  0.434374999999999 3.58876953125  0.781347656249999 3.58876953125  L 4.10263671875 3.58876953125  C 4.449609375 3.58876953125  4.731640625 3.87080078125  4.731640625 4.2177734375  Z M 3.692578125 7.75244140625  C 3.69443359375 8.0994140625  3.41240234375 8.3814453125  3.06357421875 8.3814453125  L 0.7794921875 8.3814453125  C 0.432519531250001 8.3814453125  0.15048828125 8.0994140625  0.15048828125 7.75244140625  C 0.15048828125 7.40546875  0.43251953125 7.1234375  0.7794921875 7.1234375  L 3.06357421875 7.1234375  C 3.410546875 7.1234375  3.692578125 7.40546875  3.692578125 7.75244140625  Z M 13.36142578125 10.055078125  C 12.4837890625 10.99951171875  11.240625 11.54130859375  9.95107421875 11.54130859375  C 7.38310546875 11.54130859375  5.29384765625 9.45205078125  5.29384765625 6.88408203125  C 5.29384765625 4.31611328125  7.38310546875 2.22685546875  9.95107421875 2.22685546875  C 12.51904296875 2.22685546875  14.60830078125 4.31611328125  14.60830078125 6.88408203125  C 14.60830078125 8.06416015625  14.16484375 9.1904296875  13.36142578125 10.055078125  Z M 13.35029296875 6.8822265625  C 13.3484375 5.01005859375  11.8232421875 3.48486328125  9.95107421875 3.48486328125  C 8.07705078125 3.48486328125  6.5537109375 5.01005859375  6.5537109375 6.8822265625  C 6.5537109375 8.75439453125  8.07705078125 10.27958984375  9.95107421875 10.27958984375  C 10.90478515625 10.27958984375  11.78984375 9.89365234375  12.44111328125 9.19599609375  C 13.02744140625 8.56513671875  13.35029296875 7.74501953125  13.35029296875 6.8822265625  Z " fill-rule="nonzero" fill="#aaaaaa" stroke="none" transform="matrix(1 0 0 1 354 595 )" />
  </g>
</svg>