<?xml version="1.0" encoding="utf-8"?>
<svg version="1.1" xmlns:xlink="http://www.w3.org/1999/xlink" width="15px" height="5px" xmlns="http://www.w3.org/2000/svg">
  <g transform="matrix(1 0 0 1 -353 -948 )">
    <path d="M 14.7189232338867 3.74923008951823  C 14.7189232338867 3.43202306803385  14.4888711621094 3.17640965494792  14.2033848427734 3.17640965494792  L 11.6256929194336 3.17640965494792  L 11.6256929355469 2.03076880371094  C 11.6256929355469 1.08222745279948  10.9383084301758 0.312307517903646  10.0901646342773 0.312307517903646  L 4.92092222167969 0.312307517903646  C 4.06723500585938 0.312307517903646  3.37430706445313 1.08222745279948  3.37430706445313 2.03076880371094  L 3.37430706445313 3.17640965494792  L 0.796615141113281 3.17640965494792  C 0.511128837890625 3.17640965494792  0.28107675 3.43202306803385  0.28107675 3.74923008951823  C 0.28107675 4.0664371110026  0.511128821777344 4.32205052408854  0.796615141113281 4.32205052408854  L 14.2033848427734 4.32205052408854  C 14.4888711459961 4.32205052408854  14.7189232338867 4.0664371110026  14.7189232338867 3.74923008951823  Z M 4.40538384667969 2.03076880371094  C 4.40538384667969 1.71664147786458  4.63820762841797 1.45794836914062  4.92092223779297 1.45794836914062  L 10.0901646342773 1.45794836914062  C 10.3728792275391 1.45794836914062  10.5946161694336 1.71048210449219  10.5946161694336 2.03076880371094  L 10.5946161694336 3.17640965494792  L 4.40538384667969 3.17640965494792  L 4.40538384667969 2.03076880371094  Z " fill-rule="nonzero" fill="#707070" stroke="none" transform="matrix(1 0 0 1 353 948 )" />
  </g>
</svg>