<?xml version="1.0" encoding="utf-8"?>
<svg version="1.1" xmlns:xlink="http://www.w3.org/1999/xlink" width="11px" height="11px" xmlns="http://www.w3.org/2000/svg">
  <g transform="matrix(1 0 0 1 -355 -953 )">
    <path d="M 10.9052338766741 9.08527512792969  C 10.902330163644 9.97671041978237  10.1764056535993 10.7055386259766  9.2820666655971 10.7055386259766  L 1.72083703055245 10.7055386259766  C 0.826498042550223 10.7055386259766  0.100573532505579 9.97961411593192  0.100573532505579 9.08527512792969  L 0.10057353250558 0.975246566127232  C 0.10057353250558 0.676165677036831  0.34158046484375 0.435158727818081  0.640661370814732 0.435158727818081  C 0.939742276785715 0.435158727818081  1.18074920912388 0.676165660156251  1.18074920912388 0.975246566127232  L 1.18074920912388 9.08527512792969  C 1.18074920912388 9.38435601702009  1.42465983761161 9.62536296623884  1.72083704743304 9.62536296623884  L 9.28497037862723 9.62536296623884  C 9.58405126771763 9.62536296623884  9.82505821693638 9.38435603390067  9.82505821693638 9.08527512792969  L 9.8250582000558 0.995572456054688  C 9.8250582000558 0.696491566964286  10.066065132394 0.455484617745536  10.365146038365 0.455484617745536  C 10.6642269443359 0.455484617745536  10.9052338766741 0.696491550083706  10.9052338766741 0.995572456054688  L 10.9052338766741 9.08527512792969  Z " fill-rule="nonzero" fill="#707070" stroke="none" transform="matrix(1 0 0 1 355 953 )" />
  </g>
</svg>