<?xml version="1.0" encoding="utf-8"?>
<svg version="1.1" xmlns:xlink="http://www.w3.org/1999/xlink" width="14px" height="12px" xmlns="http://www.w3.org/2000/svg">
  <g transform="matrix(1 0 0 1 -1451 -290 )">
    <path d="M 10.375 3.7  C 10.575 3.925  10.575 4.225  10.4 4.425  L 5.975 8.85  C 5.3 9.525  4.175 9.525  3.5 8.85  C 2.825 8.175  2.825 7.05  3.5 6.375  L 8.725 1.15  C 9.85 0.0250000000000004  11.675 0.0250000000000004  12.8 1.15  C 13.925 2.275  13.925 4.1  12.8 5.225  L 7.2 10.8  C 5.65 12.35  3.1 12.35  1.55 10.8  C 0 9.25  0 6.7  1.55 5.15  L 6.325 0.350000000000001  C 6.375 0.300000000000001  6.425 0.275  6.45 0.225000000000001  L 6.5 0.175000000000001  C 6.7 -0.0249999999999992  7 -0.0249999999999992  7.2 0.175000000000001  C 7.4 0.375000000000001  7.4 0.675000000000001  7.2 0.875000000000001  C 7.125 0.925000000000001  7.075 0.975000000000001  7.025 1.05  L 2.25 5.85  C 1.075 7.025  1.075 8.925  2.25 10.1  C 3.425 11.275  5.325 11.275  6.5 10.1  L 11.275 5.325  L 11.45 5.15  L 12.075 4.525  C 12.8 3.8  12.8 2.6  12.075 1.875  C 11.35 1.15  10.15 1.15  9.425 1.875  L 4.2 7.075  C 3.9 7.375  3.9 7.85  4.2 8.125  C 4.5 8.425  4.975 8.425  5.25 8.125  L 9.675 3.7  C 9.875 3.5  10.175 3.5  10.375 3.7  Z " fill-rule="nonzero" fill="#237bff" stroke="none" transform="matrix(1 0 0 1 1451 290 )" />
  </g>
</svg>