<?xml version="1.0" encoding="utf-8"?>
<svg version="1.1" xmlns:xlink="http://www.w3.org/1999/xlink" width="16px" height="16px" xmlns="http://www.w3.org/2000/svg">
  <g transform="matrix(1 0 0 1 -438 -359 )">
    <path d="M 16 8  C 16 12.4  12.4 16  8 16  C 3.6 16  0 12.4  0 8  C 0 3.6  3.6 0  8 0  C 12.4 0  16 3.6  16 8  Z M 12.73328 7.86672  C 12.66672 7.6  12.4 7.33336  12.13328 7.33336  L 8.66672 7.33336  L 8.66672 3.86664  C 8.66672 3.6  8.4 3.33328  8.06672 3.33328  L 7.86672 3.33328  C 7.60008 3.33328  7.33336 3.59992  7.33336 3.86664  L 7.33336 7.33328  L 3.86664 7.33328  C 3.6 7.33328  3.33328 7.59992  3.33328 7.93328  L 3.33328 8.13328  C 3.33328 8.4  3.59992 8.66672  3.86664 8.66672  L 7.33328 8.66672  L 7.33328 12.13336  C 7.33328 12.46672  7.59992 12.66672  7.93328 12.66672  L 8.13328 12.66672  C 8.46672 12.66672  8.73328 12.4  8.73328 12.13336  L 8.73328 8.66672  L 12.2 8.66672  C 12.53328 8.66672  12.73328 8.4  12.73328 8.06672  L 12.73328 7.86672  Z " fill-rule="nonzero" fill="#3d8af9" stroke="none" transform="matrix(1 0 0 1 438 359 )" />
  </g>
</svg>