<?xml version="1.0" encoding="utf-8"?>
<svg version="1.1" xmlns:xlink="http://www.w3.org/1999/xlink" width="22px" height="22px" xmlns="http://www.w3.org/2000/svg">
  <g transform="matrix(1 0 0 1 -622 -1111 )">
    <path d="M 10 21  L 9.99997848209375 12  L 1 12  C 0.440000000000055 12  0 11.5599999999999  0 11  C 0 10.4400000000001  0.440000000000055 10  1 10  L 10 9.99999999504143  L 10 1  C 10 0.440000000000055  10.4400000000001 0  11 0  C 11.5599999999999 0  12 0.440000000000055  12 1  L 12.0000215179062 10  L 21 10  C 21.5599999999999 10  22 10.4400000000001  22 11  C 22 11.5599999999999  21.5599999999999 12  21 12  L 12 12.0000000049586  L 12 21  C 12 21.5599999999999  11.5599999999999 22  11 22  C 10.4400000000001 22  10 21.5599999999999  10 21  Z " fill-rule="nonzero" fill="#555555" stroke="none" transform="matrix(1 0 0 1 622 1111 )" />
  </g>
</svg>