<?xml version="1.0" encoding="utf-8"?>
<svg version="1.1" xmlns:xlink="http://www.w3.org/1999/xlink" width="150px" height="150px" xmlns="http://www.w3.org/2000/svg">
  <g transform="matrix(1 0 0 1 -558 -1063 )">
    <path d="M 559 1068  A 4 4 0 0 1 563 1064 L 703 1064  A 4 4 0 0 1 707 1068 L 707 1208  A 4 4 0 0 1 703 1212 L 563 1212  A 4 4 0 0 1 559 1208 L 559 1068  Z " fill-rule="nonzero" fill="#f2f2f2" stroke="none" />
    <path d="M 558.5 1068  A 4.5 4.5 0 0 1 563 1063.5 L 703 1063.5  A 4.5 4.5 0 0 1 707.5 1068 L 707.5 1208  A 4.5 4.5 0 0 1 703 1212.5 L 563 1212.5  A 4.5 4.5 0 0 1 558.5 1208 L 558.5 1068  Z " stroke-width="1" stroke-dasharray="9,4" stroke="#d7d7d7" fill="none" stroke-dashoffset="0.5" />
  </g>
</svg>