<?xml version="1.0" encoding="utf-8"?>
<svg version="1.1" xmlns:xlink="http://www.w3.org/1999/xlink" width="22px" height="22px" xmlns="http://www.w3.org/2000/svg">
  <g transform="matrix(1 0 0 1 -341 -1048 )">
    <path d="M 0 11  C 0 4.9245625  4.9245625 0  11 0  C 17.0754375 0  22 4.9245625  22 11  C 22 17.0754375  17.0754375 22  11 22  C 4.9245625 22  0 17.0754375  0 11  Z M 7.018 5.76125  L 6.9458125 5.6959375  C 6.59200909580759 5.41222527929433  6.08142173991657 5.44006472909349  5.7605625 5.7605625  L 5.6959375 5.83275  C 5.41222527929433 6.18655340419241  5.44006472909349 6.69714076008343  5.7605625 7.018  L 9.741875 11  L 5.759875 14.982  C 5.59297767629859 15.1488061229781  5.49920806566063 15.3750985211353  5.49920806566063 15.6110625  C 5.49920806566063 16.1022566501785  5.89739959982154 16.5004481843394  6.38859375 16.5004481843394  C 6.62438927205277 16.5004481843394  6.85053432580272 16.406812038583  7.0173125 16.240125  L 11 12.25675  L 14.982 16.23875  L 15.0541875 16.303375  C 15.4079909041924 16.5870872207057  15.9185782600834 16.5592477709065  16.2394375 16.23875  L 16.3040625 16.1665625  C 16.5877747207057 15.8127590958076  16.5599352709065 15.3021717399166  16.2394375 14.9813125  L 12.258125 11  L 16.240125 7.018  C 16.4070223237014 6.85119387702192  16.5007919343394 6.62490147886473  16.5007919343394 6.3889375  C 16.5007919343394 5.89774334982154  16.1026004001785 5.49955181566063  15.61140625 5.49955181566063  C 15.3756107279472 5.49955181566063  15.1494656741973 5.59318796141704  14.9826875 5.759875  L 11 9.74325  L 7.018 5.76125  Z " fill-rule="nonzero" fill="#ff5531" stroke="none" transform="matrix(1 0 0 1 341 1048 )" />
  </g>
</svg>