<?xml version="1.0" encoding="utf-8"?>
<svg version="1.1" xmlns:xlink="http://www.w3.org/1999/xlink" width="12px" height="12px" xmlns="http://www.w3.org/2000/svg">
  <g transform="matrix(1 0 0 1 -291 -810 )">
    <path d="M 297 810  C 300.36 810  303 812.64  303 816  C 303 819.36  300.36 822  297 822  C 293.64 822  291 819.36  291 816  C 291 812.64  293.64 810  297 810  Z " fill-rule="nonzero" fill="#ffffff" stroke="none" />
    <path d="M 297 810.5  C 300.08 810.5  302.5 812.92  302.5 816  C 302.5 819.08  300.08 821.5  297 821.5  C 293.92 821.5  291.5 819.08  291.5 816  C 291.5 812.92  293.92 810.5  297 810.5  Z " stroke-width="1" stroke="#d7d7d7" fill="none" />
  </g>
</svg>