<?xml version="1.0" encoding="utf-8"?>
<svg version="1.1" xmlns:xlink="http://www.w3.org/1999/xlink" width="6px" height="6px" xmlns="http://www.w3.org/2000/svg">
  <g transform="matrix(1 0 0 1 -392 -813 )">
    <path d="M 395 813  C 396.68 813  398 814.32  398 816  C 398 817.68  396.68 819  395 819  C 393.32 819  392 817.68  392 816  C 392 814.32  393.32 813  395 813  Z " fill-rule="nonzero" fill="#3d8af9" stroke="none" />
    <path d="M 395 813.5  C 396.4 813.5  397.5 814.6  397.5 816  C 397.5 817.4  396.4 818.5  395 818.5  C 393.6 818.5  392.5 817.4  392.5 816  C 392.5 814.6  393.6 813.5  395 813.5  Z " stroke-width="1" stroke="#3d8af9" fill="none" />
  </g>
</svg>