<?xml version="1.0" encoding="utf-8"?>
<svg version="1.1" xmlns:xlink="http://www.w3.org/1999/xlink" width="16px" height="16px" xmlns="http://www.w3.org/2000/svg">
  <g transform="matrix(1 0 0 1 -1538 -17 )">
    <path d="M 9.96190476785714 2.39314285714286  C 10.3734358043025 2.39314285714286  10.707047625 2.72675467784037  10.707047625 3.13828571428571  C 10.707047625 3.54981675073106  10.3734358043025 3.88342857142857  9.96190476785714 3.88342857142857  L 9.03238094642857 3.88342857142857  C 8.93333332142857 4.19580951785714  8.78552380357143 4.61866666071429  8.58514285714286 5.08952380357143  C 8.24076191071429 5.90171428571429  7.71809523214286 6.90590475  6.97523808928571 7.74857142857143  C 7.64723808928571 8.25752380357143  8.39542857142857 8.71923808928571  9.05219048214286 9.08952380357143  C 9.50552382142857 9.34476189285714  9.90552382142857 9.552  10.192 9.69371428571428  L 10.2133333392857 9.70438094642857  L 10.8060952321429 8.28647619642857  C 10.9776772579773 7.87595587968779  11.3790648114091 7.60868395002358  11.824 7.60868395002358  C 12.2689351885909 7.60868395002358  12.6703227420227 7.87595587968779  12.8419047678571 8.28647619642857  L 14.3123809464286 11.8041904821429  L 15.2220952321429 14.0921904821429  C 15.2568582957651 14.1797240698839  15.274712621778 14.2730542377327  15.274712621778 14.3672380982143  C 15.274712621778 14.7787945182542  14.9410802236113 15.1124269164208  14.5295238035714 15.1124269164208  C 14.2241417961493 15.1124269164208  13.9496682277885 14.9261048591427  13.836952375 14.6422857142857  L 13.4102857142857 13.5695238035714  L 10.2377142857143 13.5695238035714  L 9.811047625 14.6422857142857  C 9.69328021345718 14.9154965135497  9.42428061235064 15.0924704245643  9.12676875703065 15.0924704245643  C 8.7152377205853 15.0924704245643  8.38162589988779 14.7588586038668  8.38162589988779 14.3473275674215  C 8.38162589988779 14.2603042548707  8.3968698585271 14.1739536003975  8.42666666071429 14.0921904821429  L 9.340952375 11.7912380892857  L 9.63809523214286 11.0826666607143  C 9.19212922455037 10.8637914259107  8.75258072922638 10.6320756862888  8.32 10.3878095178571  C 7.57638094642857 9.96876189285714  6.67276191071429 9.41104760714286  5.86361905357143 8.77257142857143  C 5.05447619642857 9.411047625  4.15085714285714 9.96876191071429  3.40723808928572 10.3878095178571  C 2.89987768399219 10.6733798840714  2.38328219015014 10.9422229940847  1.85828571428572 11.1939047678571  L 1.852952375 11.1977142857143  C 1.81180951785714 11.2205714285714  1.77066666071429 11.2396190535714  1.728 11.2548571428571  L 1.71276191071429 11.2624761964286  L 1.70514285714286 11.2662857142857  L 1.70209523214286 11.2662857142857  L 1.70133333928572 11.264  C 1.3664358555981 11.3710937194573  1.00210438440245 11.2310637090044  0.82514285714286 10.9272380892857  C 0.623469648579168 10.5741843383004  0.739288154096511 10.1247545236427  1.08647619642857 9.91314285714286  L 1.08571428571429 9.91085714285714  L 1.091047625 9.90780951785715  L 1.10857142857143 9.90019048214286  C 1.14438094642857 9.87961905357143  1.18171428571429 9.86209525  1.219047625 9.84761905357143  C 1.71279374243171 9.61064714820519  2.19864176535189 9.35755895009693  2.67580951785715 9.08876191071429  C 3.33257142857143 8.71923810714286  4.08076189285715 8.25752382142858  4.75276191071429 7.74857142857143  C 4.00914285714286 6.90590476785715  3.48723810714286 5.90171428571429  3.14209523214286 5.08952380357143  C 2.9744207981265 4.69472306886896  2.82543039977095 4.29224558470247  2.69561905357143 3.88342857142858  L 1.76609523214286 3.88342857142858  C 1.35456419569751 3.88342857142858  1.020952375 3.54981675073107  1.020952375 3.13828571428572  C 1.020952375 2.72675467784037  1.35456419569751 2.39314285714286  1.76609523214286 2.39314285714286  L 5.02857142857143 2.39314285714286  L 4.90666666071429 1.77980951785715  C 4.89976316439392 1.73887001948306  4.89629330180151 1.69742516943198  4.89629330180151 1.65590769373118  C 4.89629330180151 1.24437665728583  5.22990512249902 0.910764836588319  5.64143615894436 0.910764836588319  C 5.98798758615349 0.910764836588319  6.28879314200205 1.14968175036384  6.36723808928571 1.48723808928572  L 6.54857142857143 2.39314285714286  L 9.96114285714286 2.39314285714286  Z M 5.86361905357143 6.75580951785714  C 6.45028571428571 6.08990475  6.89676191071429 5.25333332142857  7.21447619642857 4.50666666071429  C 7.30895239285714 4.28419046428571  7.38971428571429 4.07314285714286  7.45828571428571 3.88342857142857  L 4.26971428571429 3.88342857142857  C 4.33828571428571 4.07390476785714  4.41980951785714 4.28419048214286  4.51352380357143 4.50666666071429  C 4.83123808928571 5.25333332142857  5.27847617857143 6.08990475  5.86438094642857 6.75580951785714  Z M 10.8365714285714 12.0784761964286  L 10.8358095178571 12.0792380892857  L 12.8121904821429 12.0792380892857  L 11.8247619107143 9.71428571428571  L 10.8365714285714 12.0784761964286  Z " fill-rule="nonzero" fill="#555555" stroke="none" transform="matrix(1 0 0 1 1538 17 )" />
  </g>
</svg>