<?xml version="1.0" encoding="utf-8"?>
<svg version="1.1" xmlns:xlink="http://www.w3.org/1999/xlink" width="14px" height="16px" xmlns="http://www.w3.org/2000/svg">
  <g transform="matrix(1 0 0 1 -1472 -17 )">
    <path d="M 12.8053333333333 12.2971428571429  C 12.9266666666667 12.1234285714286  12.936 11.9131428571429  12.8426666666667 11.7394285714286  L 12.5066666666667 11.0811428571429  C 12.2733333333333 10.6331428571429  12.152 10.1302857142857  12.152 9.62742857142857  L 12.152 6.57371428571429  C 12.152 4.10514285714286  10.3506666666667 2.01142857142857  7.98933333333333 1.54514285714286  L 7.98933333333333 1.51771428571429  C 7.98933333333333 0.978285714285714  7.54133333333333 0.539428571428571  6.99066666666667 0.539428571428571  C 6.44 0.539428571428571  5.992 0.978285714285714  5.992 1.51771428571429  L 5.992 1.536  C 5.012 1.71885714285714  4.10666666666667 2.18514285714286  3.36933333333333 2.88914285714286  C 2.38933333333333 3.85828571428571  1.83866666666667 5.13828571428571  1.83866666666667 6.50057142857143  L 1.83866666666667 9.62742857142857  C 1.83866666666667 10.1302857142857  1.71733333333333 10.6331428571429  1.484 11.0811428571429  L 1.148 11.7394285714286  C 1.05466666666667 11.9131428571429  1.064 12.1234285714286  1.176 12.2971428571429  C 1.288 12.4708571428571  1.47466666666667 12.5714285714286  1.67066666666667 12.5714285714286  L 12.3106666666667 12.5714285714286  C 12.516 12.5714285714286  12.7026666666667 12.4708571428571  12.8053333333333 12.2971428571429  Z M 2.61333333333333 11.4102857142857  L 2.61333333333333 11.4194285714286  C 2.86533333333333 10.8617142857143  3.00533333333333 10.24  3.00533333333333 9.62742857142857  L 3.00533333333333 6.50057142857143  C 3.00533333333333 5.44  3.42533333333333 4.45257142857143  4.2 3.712  C 4.96533333333333 2.97142857142857  5.992 2.57828571428571  7.06533333333333 2.58742857142857  C 9.23066666666667 2.624  10.9853333333333 4.40685714285714  10.9853333333333 6.57371428571428  L 10.9853333333333 9.61828571428571  C 10.9853333333333 10.2308571428571  11.116 10.8525714285714  11.3773333333333 11.4102857142857  L 2.61333333333333 11.4102857142857  Z M 9.65066666666667 13.5862857142857  C 9.41733333333334 13.3668571428571  9.044 13.3851428571429  8.82933333333333 13.6228571428571  C 8.36266666666667 14.1257142857143  7.7 14.4182857142857  7 14.4182857142857  C 6.30933333333333 14.4182857142857  5.63733333333333 14.1257142857143  5.17066666666667 13.6228571428571  C 4.956 13.3851428571429  4.58266666666667 13.376  4.34933333333333 13.5862857142857  C 4.10666666666667 13.7965714285714  4.09733333333333 14.1622857142857  4.312 14.3908571428571  C 5.00266666666667 15.1314285714286  5.98266666666667 15.5611428571429  7 15.5611428571429  C 8.02666666666667 15.5611428571429  9.00666666666667 15.1314285714286  9.688 14.3908571428571  C 9.90266666666666 14.1531428571429  9.884 13.7965714285714  9.65066666666667 13.5862857142857  Z " fill-rule="nonzero" fill="#555555" stroke="none" transform="matrix(1 0 0 1 1472 17 )" />
  </g>
</svg>