<?xml version="1.0" encoding="utf-8"?>
<svg version="1.1" xmlns:xlink="http://www.w3.org/1999/xlink" width="14px" height="12px" xmlns="http://www.w3.org/2000/svg">
  <g transform="matrix(1 0 0 1 -178 -19 )">
    <path d="M 1.4 2  L 12.6 2  C 13.0418277998646 2  13.4 1.64182779986463  13.4 1.2  C 13.4 0.758172200135366  13.0418277998646 0.4  12.6 0.4  L 1.4 0.4  C 0.958172200135365 0.4  0.6 0.758172200135366  0.6 1.2  C 0.6 1.64182779986463  0.958172200135365 2  1.4 2  Z M 9.4 5.2  L 1.4 5.2  C 0.958172200135365 5.2  0.6 5.55817220013537  0.6 6  C 0.6 6.44182779986463  0.958172200135365 6.8  1.4 6.8  L 9.4 6.8  C 9.84182776614716 6.8  10.1999999662825 6.44182779986463  10.1999999662825 6  C 10.1999999662825 5.55817220013537  9.84182776614716 5.2  9.39999996628252 5.2  Z M 6.2 10  L 1.4 10  C 0.958172200135365 10  0.6 10.3581722001354  0.6 10.8  C 0.6 11.2418277998646  0.958172200135365 11.6  1.4 11.6  L 6.2 11.6  C 6.64182779986464 11.6  7 11.2418277998646  7 10.8  C 7 10.3581722001354  6.64182779986464 10  6.2 10  Z " fill-rule="nonzero" fill="#555555" stroke="none" transform="matrix(1 0 0 1 178 19 )" />
  </g>
</svg>