<?xml version="1.0" encoding="utf-8"?>
<svg version="1.1" xmlns:xlink="http://www.w3.org/1999/xlink" width="12px" height="6px" xmlns="http://www.w3.org/2000/svg">
  <g transform="matrix(1 0 0 1 -1641 -72 )">
    <path d="M 1.0548828125 0.172109375000001  C 1.2561328125 -0.0291406250000001  1.578515625 -0.0413085937499997  1.7942578125 0.144355468750001  L 1.82419921875 0.172109375000001  L 6.43900390625 4.7869140625  L 11.05380859375 0.172109375000001  C 11.25505859375 -0.0294140624999999  11.57771484375 -0.0414453124999996  11.79345703125 0.144355468750001  L 11.823125 0.172109375000001  C 12.024375 0.373359375000001  12.03654296875 0.6957421875  11.85087890625 0.911484375000001  L 11.823125 0.94142578125  L 7.0158203125 5.74859375  C 6.710390625 6.05388671875  6.21984375 6.0682421875  5.89705078125 5.78126953125  L 5.8621875 5.74859375  L 1.054609375 0.94115234375  C 0.84228515625 0.728828125  0.84228515625 0.384433593749999  1.054609375 0.172109375  Z " fill-rule="nonzero" fill="#7f7f7f" stroke="none" transform="matrix(1 0 0 1 1641 72 )" />
  </g>
</svg>