<?xml version="1.0" encoding="utf-8"?>
<svg version="1.1" xmlns:xlink="http://www.w3.org/1999/xlink" width="10px" height="12px" xmlns="http://www.w3.org/2000/svg">
  <g transform="matrix(1 0 0 1 -1032 -219 )">
    <path d="M 5.0001544915625 0.2064285278125  C 5.16353320703125 0.2064285278125  5.30080223078125 0.2611198425  5.4122705459375 0.37382412328125  L 9.467616085 4.42932415390625  C 9.57869815453125 4.540328983125  9.6348571778125 4.67713451015625  9.6348571778125 4.841285705625  C 9.6348571778125 5.00705910109375  9.5796251259375 5.14548682796875  9.469701770625 5.25486945734375  C 9.36001014703125 5.364329338125  9.22142791734375 5.4206428528125  9.05550003046875 5.4206428528125  C 8.8923530578125 5.4206428528125  8.7551612853125 5.36425208671875  8.6436929703125 5.25324725734375  L 5.57966614140625 2.1842765771875  L 5.57966614140625 11.214214325  C 5.57966614140625 11.373576160625  5.5230436325 11.5103044471875  5.4094123803125 11.6230087279688  C 5.2963991165625 11.7372579573438  5.15982532140625 11.7935714721875  4.9998455084375 11.7935714721875  C 4.83994293578125 11.7935714721875  4.7036008834375 11.7371807060937  4.5901241340625 11.6230087279688  C 4.47695636765625 11.5103044471875  4.4201793671875 11.3734989203125  4.4201793671875 11.214214325  L 4.4201793671875 2.1842765771875  L 1.355998035625 5.25332450859375  C 1.24460697171875 5.36425208671875  1.107492450625 5.4206428528125  0.94403648375 5.4206428528125  C 0.77810859671875 5.4206428528125  0.6399898528125 5.36425208671875  0.52998924625 5.25486945734375  C 0.419756885625 5.14548682796875  0.3651428221875 5.00705910109375  0.3651428221875 4.841285705625  C 0.3651428221875 4.67713451015625  0.42068385703125 4.54032898328125  0.5322294234375 4.42932415390625  L 4.58749771125 0.373824123281251  C 4.698888775 0.2611198425  4.8363122903125 0.2064285278125  4.99953651421875 0.2064285278125  Z " fill-rule="nonzero" fill="#03b615" stroke="none" transform="matrix(1 0 0 1 1032 219 )" />
  </g>
</svg>