<?xml version="1.0" encoding="utf-8"?>
<svg version="1.1" xmlns:xlink="http://www.w3.org/1999/xlink" width="16px" height="12px" xmlns="http://www.w3.org/2000/svg">
  <g transform="matrix(1 0 0 1 -20 -20 )">
    <path d="M 12.3076923073266 9.81818181833718  L 12.3075829485822 11.9999999999663  L 7.38461538439594 11.9999999999665  L 7.38461538439594 5.97236056177584  L 12.307697747947 9.633730663793  L 12.3076923073266 9.81818181833718  Z M 6.15384615366329 5.0511543403193  L 6.15384694065059 11.9999999999663  L 0 11.9999999999663  L 0 4.90909090967175  L 6.15373679477224 4.90909090967175  L 6.15384615366329 5.0511543403193  Z M 15.9999999995245 11.9999999999663  L 13.5384615380592 12  L 13.5384615380592 9.81818181833718  L 15.9999999995245 9.81818301873532  L 15.9999999995245 11.9999999999663  Z M 8.6153846151286 3.81818181885721  L 0 3.81818095851079  L 0 0  L 8.6153846151286 0  L 8.6153846151286 3.81818181885721  Z M 9.84615384586126 3.81818181885721  L 9.84615305887395 0  L 15.9999999995245 0  L 16 8.72727272752264  L 13.0037479528103 8.72727272752264  L 7.86992471882298 4.90904929254143  L 8.61137705230671 4.90906490668152  L 9.84615384586126 4.90909090967175  L 9.84615384586126 3.81818181885721  Z M 12.3076923073266 9.81818181833718  L 12.555146161159 9.81818181833718  L 12.3076923073266 9.81818181833718  Z M 13.5384615379737 9.81818181833718  L 12.8876017217423 9.81818181833718  L 13.5384615379737 9.81818181833718  Z " fill-rule="nonzero" fill="#ffffff" stroke="none" transform="matrix(1 0 0 1 20 20 )" />
  </g>
</svg>