<?xml version="1.0" encoding="utf-8"?>
<svg version="1.1" xmlns:xlink="http://www.w3.org/1999/xlink" width="14px" height="14px" xmlns="http://www.w3.org/2000/svg">
  <g transform="matrix(1 0 0 1 -1508 -18 )">
    <path d="M 4.49516666666667 3.67033333333333  L 1.9915 1.16666666666667  L 4.08333333333333 1.16666666666667  C 4.4054994374013 1.16666666666667  4.66666666666667 0.905499437401296  4.66666666666667 0.583333333333333  C 4.66666666666667 0.261167229265371  4.4054994374013 0  4.08333333333333 0  L 0.583333333333333 0  C 0.261167229265371 0  0 0.261167229265371  0 0.583333333333333  L 0 4.08333333333333  C 0 4.4054994374013  0.261167229265371 4.66666666666667  0.583333333333333 4.66666666666667  C 0.905499437401296 4.66666666666667  1.16666666666667 4.4054994374013  1.16666666666667 4.08333333333333  L 1.16666666666667 1.9915  L 3.670625 4.49545833333333  C 3.78053659655753 4.60917688930021  3.93191169481706 4.67339326843309  4.09006500344201 4.67339326843309  C 4.41223110750997 4.67339326843309  4.67339833677534 4.41222603916772  4.67339833677534 4.09005993509976  C 4.67339833677534 3.93176342177883  4.60906596542267 3.78026392904014  4.49516666666667 3.67033333333333  Z M 10.3296666666667 4.49516666666667  L 12.8333333333333 1.9915  L 12.8333333333333 4.08333333333333  C 12.8333333333333 4.4054994374013  13.0945005625987 4.66666666666667  13.4166666666667 4.66666666666667  C 13.7388327707346 4.66666666666667  14 4.4054994374013  14 4.08333333333333  L 14 0.583333333333333  C 14 0.261167229265371  13.7388327707346 0  13.4166666666667 0  L 9.91666666666667 0  C 9.5945005625987 0  9.33333333333333 0.261167229265371  9.33333333333333 0.583333333333333  C 9.33333333333333 0.905499437401296  9.5945005625987 1.16666666666667  9.91666666666667 1.16666666666667  L 12.0085 1.16666666666667  L 9.50454166666666 3.670625  C 9.39082311069978 3.78053659655753  9.3266067315669 3.93191169481706  9.3266067315669 4.09006500344201  C 9.3266067315669 4.41223110750997  9.58777396083228 4.67339833677534  9.90994006490024 4.67339833677534  C 10.0682365782212 4.67339833677534  10.2197360709599 4.60906596542267  10.3296666666667 4.49516666666667  Z M 4.49516666666667 10.3296666666667  L 1.9915 12.8333333333333  L 4.08333333333333 12.8333333333333  C 4.4054994374013 12.8333333333333  4.66666666666667 13.0945005625987  4.66666666666667 13.4166666666667  C 4.66666666666667 13.7388327707346  4.4054994374013 14  4.08333333333333 14  L 0.583333333333333 14  C 0.261167229265371 14  0 13.7388327707346  0 13.4166666666667  L 0 9.91666666666667  C 0 9.5945005625987  0.261167229265371 9.33333333333333  0.583333333333333 9.33333333333333  C 0.905499437401296 9.33333333333333  1.16666666666667 9.5945005625987  1.16666666666667 9.91666666666667  L 1.16666666666667 12.0085  L 3.670625 9.50454166666666  C 3.78053659655753 9.39082311069978  3.93191169481706 9.3266067315669  4.09006500344201 9.3266067315669  C 4.41223110750997 9.3266067315669  4.67339833677534 9.58777396083228  4.67339833677534 9.90994006490024  C 4.67339833677534 10.0682365782212  4.60906596542267 10.2197360709599  4.49516666666667 10.3296666666667  Z M 10.3296666666667 9.50483333333333  L 12.8333333333333 12.0085  L 12.8333333333333 9.91666666666667  C 12.8333333333333 9.5945005625987  13.0945005625987 9.33333333333333  13.4166666666667 9.33333333333333  C 13.7388327707346 9.33333333333333  14 9.5945005625987  14 9.91666666666667  L 14 13.4166666666667  C 14 13.7388327707346  13.7388327707346 14  13.4166666666667 14  L 9.91666666666667 14  C 9.5945005625987 14  9.33333333333333 13.7388327707346  9.33333333333333 13.4166666666667  C 9.33333333333333 13.0945005625987  9.5945005625987 12.8333333333333  9.91666666666667 12.8333333333333  L 12.0085 12.8333333333333  L 9.50454166666666 10.329375  C 9.39082311069978 10.2194634034425  9.3266067315669 10.0680883051829  9.3266067315669 9.90993499655799  C 9.3266067315669 9.58776889249003  9.58777396083228 9.32660166322466  9.90994006490024 9.32660166322466  C 10.0682365782212 9.32660166322466  10.2197360709599 9.39093403457733  10.3296666666667 9.50483333333333  Z " fill-rule="nonzero" fill="#555555" stroke="none" transform="matrix(1 0 0 1 1508 18 )" />
  </g>
</svg>