<?xml version="1.0" encoding="utf-8"?>
<svg version="1.1" xmlns:xlink="http://www.w3.org/1999/xlink" width="14px" height="12px" xmlns="http://www.w3.org/2000/svg">
  <g transform="matrix(1 0 0 1 -327 -308 )">
    <path d="M 2.9110703125 0.105910714285714  L 2.9110703125 4.96285714285714  L 2.078712890625 4.96285714285714  L 2.078712890625 0.105910714285714  L 2.9110703125 0.105910714285714  Z M 4.9558359375 4.96285714285714  L 4.9558359375 0.105910714285714  L 3.77964453125 0.105910714285714  L 3.77964453125 4.96285714285714  L 4.9558359375 4.96285714285714  Z M 6.484912109375 4.96285714285714  L 6.48492578125 0.105910714285714  L 5.89681640625 0.105910714285714  L 5.89681640625 4.96285714285714  L 6.484912109375 4.96285714285714  Z M 8.55681640625 4.96285714285714  L 8.55681640625 0.105910714285714  L 7.1815625 0.105910714285714  L 7.1815625 4.96285714285714  L 8.55681640625 4.96285714285714  Z M 9.76918359375 4.96285714285714  L 9.76918359375 0.105910714285714  L 9.42536328125 0.105910714285714  L 9.42536328125 4.96285714285714  L 9.76918359375 4.96285714285714  Z M 10.72823828125 4.96285714285714  L 10.72823828125 0.105910714285714  L 10.275849609375 0.105910714285714  L 10.275849609375 4.96285714285714  L 10.72823828125 4.96285714285714  Z M 11.9768359375 4.96285714285714  L 11.9768359375 0.105910714285714  L 11.09016015625 0.105910714285714  L 11.09016015625 4.96285714285714  L 11.9768359375 4.96285714285714  Z M 11.890908203125 7.69821428571429  L 11.890908203125 5.38380803571429  L 11.09016015625 5.38380803571429  L 11.09016015625 7.69821428571429  L 11.890908203125 7.69821428571429  Z M 13.548896484375 5.38383482142857  L 13.548896484375 4.96285714285714  L 12.360673828125 4.96285714285714  L 12.360673828125 5.38383482142857  L 13.548896484375 5.38383482142857  Z M 2.89529296875 5.32967410714286  L 2.09450390625 5.32967410714286  L 2.09450390625 7.64406696428571  L 2.895265625 7.64406696428571  L 2.895265625 5.32967410714286  Z M 1.66665625 5.38383482142857  L 1.66665625 4.96285714285714  L 0.478447265625 4.96285714285714  L 0.478447265625 5.38383482142857  L 1.66665625 5.38383482142857  Z M 8.952302734375 5.74716964285714  C 9.46342578125 5.74719642857143  9.877765625 6.15309375  9.877765625 6.65373214285714  L 9.877765625 7.11729910714286  C 9.87776824623011 7.86099059659443  9.64434270085652 8.58669922580213  9.20912890625 9.19605803571428  L 8.21296875 10.5908303571429  L 8.21296875 11.8405178571429  L 5.733984375 11.8405178571429  L 5.733984375 10.5908303571429  L 4.73782421875 9.19605803571429  C 4.30261603678331 8.586696516413  4.06919106315893 7.86098966474568  4.0691875 7.11729910714286  L 4.0691875 6.65373214285714  C 4.0691875 6.15305357142857  4.483513671875 5.74716964285714  4.994650390625 5.74716964285714  L 8.952302734375 5.74716964285714  Z M 6.916943359375 7.79294196428572  C 7.56451171875 7.79294196428572  8.128052734375 7.44333482142857  8.4236796875 6.92673214285714  L 5.410234375 6.92673214285714  C 5.70584765625 7.44328125  6.269375 7.79294196428572  6.916943359375 7.79294196428572  Z " fill-rule="nonzero" fill="#3d8af9" stroke="none" transform="matrix(1 0 0 1 327 308 )" />
  </g>
</svg>