<?xml version="1.0" encoding="utf-8"?>
<svg version="1.1" xmlns:xlink="http://www.w3.org/1999/xlink" width="19px" height="20px" xmlns="http://www.w3.org/2000/svg">
  <g transform="matrix(1 0 0 1 -1055 -15 )">
    <path d="M 18.6606020797434 17.2925788973419  L 10.9623000834097 9.59427690100825  L 18.6606020797434 1.89597492392301  C 19.0490199376769 1.50317017932284  19.0490199376769 0.870947787679909  18.6606020797434 0.478143043079744  L 18.618592243813 0.436133207149404  C 18.2257874992128 0.0477153492159027  17.5935651075699 0.0477153492159027  17.2007603629698 0.436133207149404  L 9.50245836663611 8.14493764802933  L 1.80415638955087 0.436133207149404  C 1.41135164495071 0.0477153492159013  0.779129253307773 0.0477153492159015  0.386324508707608 0.436133207149404  L 0.344314672777268 0.478143043079743  C 0.152788139215595 0.664276418322868  0.0447244928507051 0.919985872841486  0.0447244928507051 1.18705898350137  C 0.0447244928507051 1.45413209416126  0.152788139215595 1.70984154867988  0.344314672777269 1.89597492392301  L 8.04261664986251 9.59427690100825  L 0.344314672777268 17.2925788973419  C -0.0441031851562332 17.685383641942  -0.0441031851562332 18.317606033585  0.344314672777269 18.7104107781851  L 0.386324508707608 18.7524206141155  C 0.779129253307773 19.140838472049  1.41135164495071 19.140838472049  1.80415638955087 18.7524206141155  L 9.50245836663611 11.0541186177819  L 17.2007603629697 18.7524206141155  C 17.5935651075699 19.140838472049  18.2257874992128 19.140838472049  18.618592243813 18.7524206141155  L 18.6606020797434 18.7104107781851  C 19.0490199376769 18.317606033585  19.0490199376769 17.6853836419421  18.6606020797434 17.2925788973419  Z " fill-rule="nonzero" fill="#333333" stroke="none" transform="matrix(1 0 0 1 1055 15 )" />
  </g>
</svg>